<?xml version="1.0" encoding="utf-8"?>
<!-- Generator: Adobe Illustrator 26.1.0, SVG Export Plug-In . SVG Version: 6.00 Build 0)  -->
<svg version="1.1" id="Layer_1" xmlns="http://www.w3.org/2000/svg" xmlns:xlink="http://www.w3.org/1999/xlink" x="0px" y="0px"
	 viewBox="0 0 4000 4000" style="enable-background:new 0 0 4000 4000;" xml:space="preserve">
<style type="text/css">
	.st0{fill:#FFFFFF;}
</style>
<g>
	<path class="st0" d="M921.59,1610.34c-248.82,431.74-90.64,1086.96,184.49,1484.22c137.34,198.65,276.39,376.94,466.83,376.94
		c3.57,0,7.18-0.07,10.86-0.24c89.49-3.54,154.16-31.11,216.65-57.73c70.19-29.92,142.82-60.83,256.68-60.83
		c108.31,0,177.44,29.92,244.26,58.82c65.93,28.52,133.77,58.03,234.04,56.13c214.51-3.98,346.23-196.36,462.44-366.11
		c121.28-177.2,182.1-349.23,202.63-414.99l0.82-2.62c3.91-11.68-1.63-24.41-12.83-29.58c0,0-1.43-0.61-1.74-0.75
		c-37.78-15.45-369.17-162.46-372.65-563.12c-3.23-325.54,248.58-497.91,299.09-529.15l2.35-1.5c5.48-3.51,9.29-9.09,10.59-15.45
		c1.29-6.4-0.03-13.04-3.74-18.42c-173.8-254.36-440.21-292.69-547.5-297.29c-15.52-1.57-31.59-2.35-47.72-2.35
		c-125.97,0-246.67,47.55-343.65,85.81c-66.92,26.41-124.75,49.18-164.57,49.18c-44.83,0-102.96-23.08-170.26-49.76
		c-90.06-35.74-192.11-76.25-300.11-76.25c-2.59,0-5.11,0.03-7.59,0.1C1289.75,1239.09,1052.4,1382.8,921.59,1610.34z"/>
	<path class="st0" d="M2575.08,528.52c-152.08,6.2-334.56,99.83-443.58,227.58c-92.72,107.32-183.23,286.36-159.4,466.8
		c1.5,11.3,10.72,19.98,22.06,20.9c10.28,0.78,20.73,1.19,31.18,1.19c148.71,0,309.17-82.3,418.73-214.78
		c115.32-139.86,173.63-319.41,156-480.21C2598.67,537.37,2587.58,528.01,2575.08,528.52z"/>
</g>
</svg>
